<svg id="visual" viewBox="0 0 900 256" width="900" height="256" xmlns="http://www.w3.org/2000/svg" xmlns:xlink="http://www.w3.org/1999/xlink" version="1.1"><rect x="0" y="0" width="900" height="256" fill="#ffffff"></rect><path d="M0 197L43 197L43 167L86 167L86 155L129 155L129 162L171 162L171 180L214 180L214 165L257 165L257 204L300 204L300 178L343 178L343 151L386 151L386 172L429 172L429 173L471 173L471 203L514 203L514 188L557 188L557 196L600 196L600 178L643 178L643 198L686 198L686 202L729 202L729 192L771 192L771 190L814 190L814 164L857 164L857 192L900 192L900 192L900 257L900 257L857 257L857 257L814 257L814 257L771 257L771 257L729 257L729 257L686 257L686 257L643 257L643 257L600 257L600 257L557 257L557 257L514 257L514 257L471 257L471 257L429 257L429 257L386 257L386 257L343 257L343 257L300 257L300 257L257 257L257 257L214 257L214 257L171 257L171 257L129 257L129 257L86 257L86 257L43 257L43 257L0 257Z" fill="#fca5a5"></path><path d="M0 210L43 210L43 197L86 197L86 190L129 190L129 182L171 182L171 182L214 182L214 203L257 203L257 209L300 209L300 202L343 202L343 208L386 208L386 187L429 187L429 188L471 188L471 196L514 196L514 214L557 214L557 203L600 203L600 214L643 214L643 191L686 191L686 212L729 212L729 202L771 202L771 175L814 175L814 204L857 204L857 207L900 207L900 206L900 257L900 257L857 257L857 257L814 257L814 257L771 257L771 257L729 257L729 257L686 257L686 257L643 257L643 257L600 257L600 257L557 257L557 257L514 257L514 257L471 257L471 257L429 257L429 257L386 257L386 257L343 257L343 257L300 257L300 257L257 257L257 257L214 257L214 257L171 257L171 257L129 257L129 257L86 257L86 257L43 257L43 257L0 257Z" fill="#f26c67"></path><path d="M0 240L43 240L43 210L86 210L86 221L129 221L129 234L171 234L171 229L214 229L214 239L257 239L257 214L300 214L300 207L343 207L343 219L386 219L386 207L429 207L429 221L471 221L471 218L514 218L514 240L557 240L557 231L600 231L600 224L643 224L643 224L686 224L686 234L729 234L729 221L771 221L771 234L814 234L814 206L857 206L857 211L900 211L900 205L900 257L900 257L857 257L857 257L814 257L814 257L771 257L771 257L729 257L729 257L686 257L686 257L643 257L643 257L600 257L600 257L557 257L557 257L514 257L514 257L471 257L471 257L429 257L429 257L386 257L386 257L343 257L343 257L300 257L300 257L257 257L257 257L214 257L214 257L171 257L171 257L129 257L129 257L86 257L86 257L43 257L43 257L0 257Z" fill="#dc2626"></path></svg>