<svg id="visual" viewBox="0 0 900 600" width="900" height="600" xmlns="http://www.w3.org/2000/svg" xmlns:xlink="http://www.w3.org/1999/xlink" version="1.1"><rect x="0" y="0" width="900" height="600" fill="#ffffff"></rect><path d="M0 83L21.5 89.3C43 95.7 86 108.3 128.8 120.3C171.7 132.3 214.3 143.7 257.2 144.8C300 146 343 137 385.8 130C428.7 123 471.3 118 514.2 112.3C557 106.7 600 100.3 642.8 95.7C685.7 91 728.3 88 771.2 90.3C814 92.7 857 100.3 878.5 104.2L900 108L900 0L878.5 0C857 0 814 0 771.2 0C728.3 0 685.7 0 642.8 0C600 0 557 0 514.2 0C471.3 0 428.7 0 385.8 0C343 0 300 0 257.2 0C214.3 0 171.7 0 128.8 0C86 0 43 0 21.5 0L0 0Z" fill="#dc2626" stroke-linecap="round" stroke-linejoin="miter"></path></svg>